<mxfile host="app.diagrams.net" modified="2023-06-30T03:44:11.779Z" agent="Mozilla/5.0 (Macintosh; Intel Mac OS X 10_15_7) AppleWebKit/537.36 (KHTML, like Gecko) Chrome/114.0.0.0 Safari/537.36" version="21.5.2" etag="QUNrCjZEf6d75x5eAyuR" type="github">
  <diagram name="Page-1" id="U-gWTcchUs-p3g92YH2O">
    <mxGraphModel>
      <root>
        <mxCell id="0" />
        <mxCell id="1" parent="0" />
      </root>
    </mxGraphModel>
  </diagram>
</mxfile>
